<svg xmlns="http://www.w3.org/2000/svg" viewBox="0 0 72 60" width="72" height="60" role="img">
  <g fill="#2496ed">
    <rect x="24" y="26" width="8.4" height="8.4" rx="0.8"/>
    <rect x="33.6" y="26" width="8.4" height="8.4" rx="0.8"/>
    <rect x="43.2" y="26" width="8.4" height="8.4" rx="0.8"/>
    <rect x="24" y="16.4" width="8.4" height="8.4" rx="0.8"/>
    <rect x="33.6" y="16.4" width="8.4" height="8.4" rx="0.8"/>
    <rect x="43.2" y="16.4" width="8.4" height="8.4" rx="0.8"/>
    <rect x="33.6" y="6.8" width="8.4" height="8.4" rx="0.8"/>
    <rect x="14.4" y="26" width="8.4" height="8.4" rx="0.8"/>
  </g>
  <path d="M69.4 29.6c-1.9-1.3-6.2-1.7-9.6-1.1-.4-3.2-2.2-6-5.4-8.5l-1.8-1.2-1.2 1.8c-1.6 2.4-2.2 6.4-.5 9.3.8 1.3 1.9 2.2 3.2 2.9-1.5.9-4.5 2.1-8.5 2H2.6c-.6 3.6.2 8.3 2.6 11.9C8 51 12.5 53.5 18.6 53.5c13.3 0 23.1-6.1 27.7-17.2 1.8 0 5.8 0 7.8-3.9.1-.2.5-1 .7-1.3l-.4-.3 3-1.2Z" fill="#2496ed"/>
  <path d="M8.4 47.7c4 2.4 9.4 3.1 13.7 2.3-1.3-2-2.3-4.4-2.8-6.9-2.4 1.9-6.3 3.5-10.9 4.6Z" fill="#ffffff" opacity="0.25"/>
</svg>
